<svg width="36" height="36" viewBox="0 0 36 36" fill="none" xmlns="http://www.w3.org/2000/svg">
<path d="M3 4C3 3.44772 3.44772 3 4 3H21C27.6274 3 33 8.37258 33 15V21C33 27.6274 27.6274 33 21 33H4C3.44772 33 3 32.5523 3 32V4Z" fill="#40916C"/>
<path d="M23.7368 16.7368C24.4274 16.7368 25 17.3095 25 18C25 18.6905 24.4274 19.2632 23.7368 19.2632H11.5263V19.6842C11.5263 21.7726 13.2274 23.4737 15.3158 23.4737H23.7368C24.4274 23.4737 25 24.0463 25 24.7368C25 25.4274 24.4274 26 23.7368 26H15.3158C11.8295 26 9 23.1705 9 19.6842V16.3158C9 12.8295 11.8295 10 15.3158 10H23.7368C24.4274 10 25 10.5726 25 11.2632C25 11.9537 24.4274 12.5263 23.7368 12.5263H15.3158C13.2274 12.5263 11.5263 14.2274 11.5263 16.3158V16.7368H23.7368Z" fill="white"/>
</svg>
