<svg width="20" height="20" viewBox="0 0 20 20" fill="none" xmlns="http://www.w3.org/2000/svg">
<path d="M4.16667 8.33301C3.25 8.33301 2.5 9.08301 2.5 9.99967C2.5 10.9163 3.25 11.6663 4.16667 11.6663C5.08333 11.6663 5.83333 10.9163 5.83333 9.99967C5.83333 9.08301 5.08333 8.33301 4.16667 8.33301Z" fill="#8498B4"/>
<path d="M15.8334 8.33301C14.9167 8.33301 14.1667 9.08301 14.1667 9.99967C14.1667 10.9163 14.9167 11.6663 15.8334 11.6663C16.75 11.6663 17.5 10.9163 17.5 9.99967C17.5 9.08301 16.75 8.33301 15.8334 8.33301Z" fill="#8498B4"/>
<path d="M9.99998 8.33301C9.08331 8.33301 8.33331 9.08301 8.33331 9.99967C8.33331 10.9163 9.08331 11.6663 9.99998 11.6663C10.9166 11.6663 11.6666 10.9163 11.6666 9.99967C11.6666 9.08301 10.9166 8.33301 9.99998 8.33301Z" fill="#8498B4"/>
</svg>
