<svg width="48" height="48" viewBox="0 0 48 48" fill="none" xmlns="http://www.w3.org/2000/svg">
<path d="M40 16.5V36C40 42 36.42 44 32 44H16C11.58 44 8 42 8 36V16.5C8 10 11.58 8.5 16 8.5C16 9.74 16.4999 10.86 17.3199 11.68C18.1399 12.5 19.26 13 20.5 13H27.5C29.98 13 32 10.98 32 8.5C36.42 8.5 40 10 40 16.5Z" stroke="#EB5757" stroke-width="2.5" stroke-linecap="round" stroke-linejoin="round"/>
<path d="M32 8.5C32 10.98 29.98 13 27.5 13H20.5C19.26 13 18.1399 12.5 17.3199 11.68C16.4999 10.86 16 9.74 16 8.5C16 6.02 18.02 4 20.5 4H27.5C28.74 4 29.8601 4.50001 30.6801 5.32001C31.5001 6.14001 32 7.26 32 8.5Z" stroke="#EB5757" stroke-width="2.5" stroke-linecap="round" stroke-linejoin="round"/>
<path d="M16 26H24" stroke="#EB5757" stroke-width="2.5" stroke-linecap="round" stroke-linejoin="round"/>
<path d="M16 34H32" stroke="#EB5757" stroke-width="2.5" stroke-linecap="round" stroke-linejoin="round"/>
</svg>
